<?xml version="1.0" encoding="UTF-8"?>
<svg id="Layer_1" data-name="Layer 1" xmlns="http://www.w3.org/2000/svg" viewBox="0 0 505 335">
  <path class="cls-1" d="M330.41,332.39c-23.17-.83-44.85-6.88-64.53-17.98-11.31-6.28-19.37-13.65-24.6-22.53-3.94-6.38-5.99-12.97-6.24-20.1-.23-4.88.64-10.17,2.52-15.3v-.46l.03-.37c.16-.86.61-3.27,3.19-4.31.02-.4.1-.93.48-1.6l.09-.14.35-.51.4-1.2c.38-.5,1.41-1.71,2.87-2.14l.57-.08c.36,0,1.22,0,2.02.71.36.32,1.13,1,1.13,2.11,0,.93-.41,1.67-.72,2.2,0,0-.42.52-.42.52v.05c-3.95,7.37-5.72,14.62-5.29,21.55.44,5.69,2.23,11.06,5.45,16.41.65,1.16,1.51,2.3,2.41,3.5,5.88,8.13,14.72,14.92,27.02,20.79,1.65.84,3.16,1.61,4.67,2.18,15.48,6.68,32.14,10.25,49.58,10.67.44,0,.89.01,1.34.01h.01c21.84,0,37.83-9.51,47.53-28.27,6.97-13.58,9.68-28.24,11.27-39.5,2.02-14.36,2.96-29.88,2.96-48.82,0-9.58-.22-19.53-.45-29.17-19.4,6.18-44.83,14.49-70.03,24.11-5.97,2.3-12.66,5.03-19.89,8.12-.96.37-1.81.79-2.63,1.2-.58.29-1.14.57-1.71.82-15.02,6.88-25.59,12.78-34.27,19.14l-2.83,1.88-3.61,2.61c-2.4,1.74-4.62,3.71-6.58,5.84l-.14.14-1.15,1.02c-.36.32-1.03.91-2.02.91s-1.65-.59-2.01-.91c-.65-.58-1.02-1.39-1.02-2.21s.37-1.63,1.01-2.21l.31-.23c.35-.2.66-.62,1.02-1.11.86-1.15,2.01-2.68,4.25-3.39.15-.94.61-1.79,1.3-2.4,6.7-5.53,12.48-9.6,18.23-12.88,27.27-15.87,58.18-26.91,85-36.01,8.83-3.1,18.61-6.31,29.88-9.8l6.14-1.82c.5-.19.64-.31.67-.34,0,0,.04-.16.04-.62,0-.74-.05-1.5-.11-2.3-.06-.82-.12-1.67-.12-2.53l-.07-1.42c-.66-12.63-1.33-25.69-2.22-38.23l-.69-13.49-.2-2.8c-.86-11.88-1.75-24.16-3.23-36.17-.35-2.18-.87-4.44-1.52-6.7-2.4,2.78-4.42,5.89-6.37,8.91l-.83,1.28-.08.11-1.34,1.78c-12.98,19.73-24.77,37.5-37.64,55.24-9.1,12.63-17.55,23.28-25.82,32.55l-3.68,4.08c-2.81,2.92-5.91,5.9-9.79,8.28-1.08.76-2.42,1.33-3.6,1.84-.28.12-.55.24-.82.36-1.99.77-3.87,1.14-5.68,1.14-3.97,0-7.43-1.73-10.01-4.99-3.39-4.4-4.32-9.58-4.78-14.07-.24-1.91-.24-3.66-.24-5.5-.24-7.12.72-13.99,1.63-19.87,2.35-15.03,6.23-30.39,9.68-43.59,1.66-6.28,3.59-13.7,5.26-21.12,2.52-11,5-22.7,5.23-34.24,0-1.98-.13-4.98-1.21-7.71l-.04-.08c-.54-1.12-.79-1.59-1.1-1.7-.36-.13-.77-.19-1.25-.19-.55,0-1.18.08-1.94.24-4.47,1.34-8.44,3.87-12.12,6.37l-.13.12-.2.15c-4.97,3.41-9.78,7.08-14.29,10.88l-3.35,2.98-3.17,3.21-6.13,6.86-3.44,3.87c-.66.82-1.35,1.68-1.99,2.55.56.01,1.1.11,1.64.28.32.06.56.17.7.23h0s-.19-.07-.47-.07v3.06l.46.87c.34-.1.56-.27.64-.34-.27.24-.56.41-.88.51-1.27.64-2.31.87-3.23,1.07-1.01.22-2.05.46-2.96.46-1.03,0-1.85-.19-2.5-.59-.63-.26-1.34-.9-1.34-2.43,0-.29,0-.97.36-1.93.83-1.96,2.08-3.52,3.3-5.03l.05-.02c.11-.23.26-.44.44-.64,4.79-6.46,10.5-12.02,14.38-15.64,8.08-7.61,15.54-14.35,24.93-19.64,2.48-1.32,5.19-2.62,8.38-3.27.94-.17,1.81-.25,2.66-.25,4.42,0,8.01,2.11,9.85,5.79,1,2.22,1.55,4.63,1.81,7.87.66,8.99-.92,17.71-2.44,26.15l-.32,1.79c-.04.38-.18.68-.28.88-2.15,12.07-5.03,24.07-7.57,34.38-3.38,13.6-6.87,28.07-9.15,42.22-.99,6.61-1.33,11.31-1.12,15.68,0,3.15.42,6.02.89,8.94.38,2.56,1.12,4.78,2.26,6.82,1.12,1.73,1.86,1.87,2.52,1.87.57,0,1.3-.16,2.21-.48,4.85-1.69,8.3-4.92,12.29-8.66l.09-.08c7.43-7.21,13.84-15.53,19.27-22.76l3-3.89.1-.12.86-.96c13.43-17.58,25.4-35.47,36.35-52.18l2.77-4.1,6.87-10.38.07-.1,1.38-1.83c.3-.44.65-.94,1-1.45,1.54-2.25,3.12-4.57,5.06-6.8,1.26-1.4,2.35-2.27,3.45-2.76,1.1-.49,2.52-.78,3.79-.78h.22c2.65.31,4.84,2.26,6.01,5.37,1.9,4.64,2.38,9.59,2.85,14.38l.02.29c.01.05.03.11.04.16.07.24.17.59.19,1.01,2.09,18.56,3.76,38.83,5.28,63.79l1.35,25.57c7.52-2.23,15.28-4.53,22.92-7.13-.2-.7-.34-1.4-.49-2.09-.06-.31-.13-.61-.2-.92-1.23-6.76-.03-13.36,1.13-19.74,1.8-10.27,3.63-18.89,6.68-27.45,0-.06,0-.13,0-.19.04-3.07,2.2-3.4,3.13-3.4.31,0,.63.03.99.1,4.31.85,4.34,3.99,4.15,5.3l-.03.16c-.69,3.07-1.4,6.21-2.34,9.14-3.36,11.51-5.21,22.35-5.64,33.08,0,1.2.07,2.37.22,3.54.23-.32.45-.67.69-1.03,7.63-11.06,14.12-23.62,20.47-39.59l.04-.1c.46-1.03.94-2.08,1.66-3.18l.05-.11c.45-1.04,1.39-3.19,3.94-3.19.18,0,.36.01.55.04,2.8.31,4.78,2.03,5.16,4.49.47,2.32.71,4.63.94,6.87v.13s.47,12.17.47,12.17c.21,2.13.79,4.09,1.85,6.15.75,1.54,1.11,1.54,1.3,1.54.44,0,1.13-.21,2.07-.63,2.01-.89,3.68-2.38,5.45-3.94,6.75-6.21,12.53-12.58,17.62-19.46.47-.62,1.32-1.76,2.89-1.76.18,0,.36.02.55.05l.65-.63c.36.32.75.67,1.02,1.11l.12.11-.03.07c.15.29.24.63.24,1.02l-.21.08.21.33c0,.34,0,1.3-.67,2.08-4.65,6.73-10.97,15.16-19.5,22.59.5-.16.99-.33,1.49-.49,2.68-.99,5.29-1.96,7.67-3.3l.51-.13c.23-.1.63-.29.85-.44,0,0-.08-.54-.08-.54,0-.32,0-1.3.9-2.1.8-.71,1.65-.71,2.02-.71,2.14,0,2.95,1.32,3.25,2.11l-.71.72c.52,2.07-.39,4.06-2.58,5.52-2.23,1.44-4.85,2.61-7.81,3.49l-3.14,1.2c-.58.21-1.12.36-1.65.51-.55.15-1.08.3-1.47.47l-.19.07-24.78,8.15-15.74,5.01c-.54.67-1.05,1.26-1.55,1.8-1.35,1.47-3.15,2.28-5.04,2.28-1.18,0-2.32-.32-3.35-.92l-26.88,8.55-.12.03c-.28.07-.45.13-.54.18,0,.07-.02.17-.02.33.46,10.29.69,21.42.69,33.01,0,15.63-.66,28.52-2.08,40.57-2.36,19.68-6.17,34.08-12.35,46.69-6.63,13.67-15.97,22.99-28.53,28.46-8.41,3.63-17.78,5.46-27.87,5.46h-2.75ZM459.76,130.76c-.53,1.22-1.03,2.47-1.54,3.74-3.1,7.71-7.31,14.95-11.37,21.95l-.83,1.43c7.43-2.3,15.39-4.78,23.45-7.34-1.94-.59-3.67-1.7-4.99-3.23-3.81-4.05-4.37-9.06-4.61-13.84-.06-.9-.09-1.81-.11-2.71ZM24.36,257.21c-.61,0-1.45,0-2.24-.71-.42-.38-1.13-1.28-1.13-2.31v-.81c0-.63-.05-1.23-.11-1.87-.06-.67-.12-1.35-.12-2.11l-.68-7.25-.69-13.53-2.06-28.69-2.06-27.29-1.38-19.57-2.29-31.17-2.75-41.58-.69-15.94v-3.05c-.23-2.47-.47-5.02-.22-7.62.11-1.57-.35-2.93-1.2-4.4l-2.08.69-.41-.55c-2.75-3.13-4.46-6.04-5.2-8.91-.54-1.93.4-3.04.84-3.42l.31-.23c.47-.28,1.01-.42,1.61-.42.95,0,2.03.38,2.69.8.81.38,1.48.86,2.06,1.37v-7.98c0-.85-.02-1.09-.16-1.29-1.82-1.75-1.24-3.86-.76-5.18v-.25c0-1.29,1.08-2.65,3.09-2.65.24,0,.5.02.8.06l.65.21,1.15.61.72.65.69,1.02.33.86.69,5.3.02.26v3.57c.45,4.42.91,8.96,1.14,13.45v.1c0,2.07,1.14,3.93,2.41,5.81l.21.42.62,1.65c4.13,6.65,7.95,13.65,11.65,20.41l1.83,3.35,2.72,4.63,2.77,4.92,5.51,10,3.19,5.46c19.15,33.39,38.37,61.42,58.77,85.7,7.22,8.62,13.41,15.66,21.82,21.21,2.09,1.48,4.85,3.24,8.28,4,.58.12,1.17.18,1.72.18,1.61,0,3.01-.52,4.4-1.63,2.08-1.66,3.72-3.89,5.17-7.02,3.73-7.99,5.56-16.71,7.32-25.15l.07-.35c.03-.37.12-.68.18-.9.02-.06.04-.12.05-.18,0,.04,0,.07,0,.11l.04-.4c4.88-23.86,9.51-49.74,13.75-76.92,2.81-18.81,5-38.03,6.41-50.84l.68-9.1v-.13s.7-4.89.7-4.89l.03-.33c.91-8.46,1.84-17.21,4.14-25.79.48-1.93,1.25-4.45,2.86-6.59,1.4-2,3.23-2.43,4.5-2.43.84,0,1.73.18,2.65.55l.38.56c1,.44,1.69,1.05,2.05,1.84.27.58.34,1.23.19,1.85-.12,1.09-.8,1.69-1.11,1.96l-.52.33c-.38.17-.81.26-1.26.26-.24,0-.48-.02-.71-.07v.04c-1.54,3.29-2.17,7.04-2.58,10.29v.08l-.02.31c-1.41,9.15-2.61,19.24-3.66,30.84l-.46,5.09c-1.79,18.9-4.5,39.23-8.05,60.46-4.19,25.04-8.33,47.19-12.63,67.72-1.55,6.86-3.45,14.77-6.54,22.16-1.71,4.26-3.9,7.62-6.66,10.25-3.59,3.35-7.63,5.04-12.03,5.04-1.86,0-3.8-.31-5.77-.91-1.81-.6-3.28-1.23-5.14-2.17-3.51-1.92-6.59-4.3-8.61-5.93-1.58-1.2-3.26-2.48-4.73-4-8.08-7.56-14.74-15.91-20.62-23.28l-1.56-1.96c-18.35-23.11-35.37-48.92-52.04-78.92l-16.29-29.34-4.97-9.2.46,9.15.69,15.29,2.06,31.74,2.06,26.05,2.29,29.34,2.75,40.97.69,15.32.69,12.31c0,.74.05,1.5.11,2.3.06.83.12,1.7.12,2.58v1.65c.13.85-.03,1.66-.49,2.35-.4.59-1.2,1.36-2.77,1.64l-.35.03ZM199.04,170.04c-2.01,0-3.89-.91-5.28-2.57l-.07-.09c-1.42-1.9-1.84-3.93-2.21-5.72-.07-.32-.13-.63-.2-.95-1.23-6.75-.03-13.36,1.13-19.74,1.8-10.28,3.63-18.89,6.68-27.45,0-.06,0-.13,0-.19.04-3.07,2.2-3.4,3.13-3.4.31,0,.63.03,1,.1,4.31.85,4.34,3.99,4.15,5.3l-.03.16c-.69,3.04-1.39,6.19-2.34,9.14-3.36,11.51-5.21,22.35-5.64,33.09,0,1.24.07,2.41.21,3.56.24-.33.46-.69.7-1.05,7.63-11.06,14.13-23.62,20.47-39.59.5-1.11.98-2.18,1.7-3.28l.05-.11c.45-1.03,1.39-3.19,3.94-3.19.17,0,.36.01.55.04,2.8.31,4.78,2.03,5.16,4.49.47,2.32.71,4.63.94,6.87v.13s.47,12.17.47,12.17c.21,2.14.8,4.09,1.85,6.15.75,1.54,1.11,1.54,1.3,1.54.44,0,1.13-.21,2.07-.63,2.01-.89,3.68-2.38,5.45-3.95,6.75-6.2,12.52-12.57,17.62-19.46.46-.62,1.32-1.76,2.89-1.76.18,0,.36.02.54.05l.65-.63c.36.32.75.67,1.02,1.11l.12.11-.03.07c.15.29.24.63.24,1.02l-.21.08.21.33c0,.34,0,1.3-.67,2.08-5.16,7.45-12.34,16.99-22.34,24.96-1.87,1.45-4.21,2.24-6.62,2.24h0c-3.23,0-6.26-1.36-8.3-3.72-3.81-4.05-4.37-9.06-4.61-13.83-.06-.9-.09-1.81-.11-2.71-.53,1.22-1.03,2.48-1.54,3.75-3.1,7.7-7.3,14.94-11.37,21.94l-1.61,2.77c-2.02,3.6-3.94,6.31-6.01,8.52-1.35,1.47-3.15,2.29-5.04,2.29Z"/>
</svg>